# Blender v2.75 (sub 0) OBJ File: ''
# www.blender.org
mtllib boat.mtl
o Cube
v 0.268206 -0.120536 -2.190808
v 0.310419 -0.131225 1.031346
v 0.352633 0.119284 -2.188582
v 0.310419 0.129973 1.031347
v 0.486865 0.249487 -2.210116
v 0.486865 0.249487 1.010925
v 0.646018 0.389423 -2.232466
v 0.646018 0.389423 0.988576
v 0.794932 0.560728 -2.274057
v 0.794932 0.560728 0.946984
v 0.646018 0.389423 -2.232466
v 0.794932 0.560728 -2.274057
v 0.253469 0.129973 -2.189695
v 0.124830 -0.120536 -2.190808
v 0.082617 -0.131225 1.031346
v 0.040403 0.119284 -2.188582
v 0.082617 0.129973 1.031347
v 0.196518 -0.131225 -2.189696
v 0.196518 -0.131225 1.031345
v 0.196518 0.129973 -2.189695
v 0.196518 0.129973 1.031346
v -0.093829 0.249487 -2.210116
v -0.093829 0.249487 1.010925
v -0.252982 0.389423 -2.232466
v -0.252982 0.389423 0.988576
v -0.401896 0.560728 -2.274057
v -0.401896 0.560728 0.946984
v -0.252982 0.389423 -2.232466
v -0.401896 0.560728 -2.274057
v 0.139567 0.129973 -2.189695
v 0.792553 0.472278 -1.995289
v 0.082617 -0.131225 1.031346
v 0.196518 -0.131225 1.031345
v 0.292863 0.149683 1.319763
v 0.178962 0.149683 1.319762
v 0.065061 0.149683 1.319763
v 0.178962 0.149683 1.319762
v 0.292863 0.351878 1.547515
v 0.178962 0.351878 1.547515
v 0.065061 0.351878 1.547515
v 0.178962 0.351878 1.547515
v 0.292863 0.649704 1.886667
v 0.178962 0.649704 1.886667
v 0.065061 0.649704 1.886667
v 0.178962 0.649704 1.886667
vt 0.525280 0.003659
vt 0.459274 0.778779
vt 0.368040 0.774817
vt 1.000000 0.566129
vt 0.912018 0.569683
vt 1.000000 0.552395
vt 0.197874 0.124511
vt 0.177871 0.901267
vt 0.157870 0.124511
vt 0.625793 0.210246
vt 0.665797 0.210246
vt 0.665796 0.986823
vt 0.212699 0.901000
vt 0.259843 0.129416
vt 0.259843 0.906172
vt 0.315740 0.134782
vt 0.315739 0.911538
vt 0.368040 0.144784
vt 0.000000 0.000000
vt 0.706197 0.000890
vt 0.794827 0.000000
vt 0.794827 0.775876
vt 0.912018 0.535108
vt 1.000000 0.538662
vt 0.631959 0.139259
vt 0.631959 0.083305
vt 0.671963 0.083306
vt 0.137868 0.901267
vt 0.117867 0.124511
vt 0.705800 0.210246
vt 0.103040 0.901000
vt 0.055897 0.906172
vt 0.055897 0.129416
vt 0.000000 0.911538
vt 0.000000 0.134782
vt 0.569834 0.007650
vt 0.625793 0.000000
vt 0.590990 0.776027
vt 0.841165 0.074291
vt 0.841165 0.214325
vt 0.794827 0.181955
vt 0.890914 0.035911
vt 0.952745 0.000000
vt 0.952745 0.288616
vt 0.890914 0.252705
vt 0.874809 0.668216
vt 0.834876 0.669852
vt 0.834876 0.598739
vt 0.843397 0.330093
vt 0.908265 0.288616
vt 0.904923 0.385303
vt 0.459499 0.848577
vt 0.874809 0.597104
vt 0.830025 0.542885
vt 0.631960 0.000000
vt 0.671963 0.000000
vt 0.869957 0.541249
vt 0.822802 0.459727
vt 0.908265 0.458092
vt 0.794827 0.351095
vt 0.506729 0.774603
vt 0.525280 0.915905
vt 0.535031 0.783676
vt 0.111701 0.000000
vt 0.191708 0.000000
vt 0.908265 0.385037
vt 0.978943 0.288616
vt 0.978943 0.514748
vt 0.874692 0.666870
vt 0.794827 0.670141
vt 0.439036 0.000000
vt 0.996247 0.590043
vt 0.908265 0.552395
vt 0.157870 0.901267
vt 0.640619 0.987036
vt 0.368040 0.921539
vt 0.705800 0.776138
vt 0.996247 0.514748
vt 0.671963 0.139260
vt 0.690974 0.987036
vt 0.794827 0.106661
vt 0.862734 0.458092
vt 0.525280 0.906441
vt 0.625793 1.000000
vt 0.932993 0.514491
vt 0.794944 0.600375
vn 0.999900 -0.000000 0.013100
vn 0.000000 0.004400 -1.000000
vn 0.000000 1.000000 -0.000000
vn 0.000000 -1.000000 0.000000
vn -0.561600 0.827400 -0.010100
vn -0.660300 0.751000 -0.000000
vn -0.754700 0.656100 -0.000000
vn 0.000000 0.000000 1.000000
vn -0.999900 0.000000 0.013100
vn -0.000000 -0.747800 0.663900
vn 0.696300 0.717800 -0.000000
vn 0.660300 0.751000 -0.000000
vn 0.754700 0.656100 -0.000000
vn 0.000000 0.163200 0.986600
vn 0.000000 0.157700 0.987500
vn 0.000000 0.235900 0.971800
vn 0.000000 -0.716400 0.697700
vn -0.998200 0.000000 -0.060800
vn 0.998200 -0.000000 0.060800
vn -0.000000 -0.751400 0.659800
vn -0.869500 -0.369400 0.327900
vn 0.565700 -0.819700 0.090400
vn 0.740900 0.550700 -0.384600
vn 0.650000 0.687600 -0.323700
vn -0.643800 0.674500 -0.361500
vn -0.740500 0.505000 -0.443500
vn 0.000000 -0.997700 0.068200
vn 0.943200 -0.331900 -0.013500
vn 0.011800 0.005100 -0.999900
vn -0.015500 0.000000 -0.999900
vn 0.107200 0.994200 -0.001900
vn 0.147400 -0.989100 -0.005200
vn -0.696300 0.717800 -0.000000
vn -0.943200 -0.331900 -0.013500
vn -0.011800 0.005100 -0.999900
vn 0.015500 0.000000 -0.999900
vn -0.107200 0.994200 -0.001900
vn -0.147400 -0.989100 -0.005200
vn 0.561600 0.827400 -0.010100
vn -0.562400 -0.826500 0.022200
vn 0.821700 -0.426200 0.378400
vn 0.764200 0.484700 -0.425600
vn -0.731400 0.532300 -0.426400
usemtl Material
s off
f 3/1/1 4/2/1 2/3/1
f 13/4/2 1/5/2 20/6/2
f 4/7/3 13/8/3 21/9/3
f 2/10/4 19/11/4 18/12/4
f 3/13/5 4/7/5 6/14/5
f 5/15/6 6/14/6 8/16/6
f 7/17/7 8/16/7 10/18/7
f 7/19/8 9/19/8 12/19/8
f 15/20/9 17/21/9 16/22/9
f 14/23/2 30/24/2 20/6/2
f 34/25/10 38/26/10 39/27/10
f 30/28/3 17/29/3 21/9/3
f 18/12/4 19/11/4 15/30/4
f 16/31/11 22/32/11 23/33/11
f 22/32/12 24/34/12 25/35/12
f 24/36/13 26/37/13 27/38/13
f 24/19/8 28/19/8 29/19/8
f 5/39/14 22/40/14 16/41/14
f 22/40/15 5/39/15 11/42/15
f 12/43/16 29/44/16 28/45/16
f 15/19/8 19/19/8 33/19/8
f 32/46/17 33/47/17 37/48/17
f 19/11/17 2/10/17 34/25/17
f 17/49/18 32/50/18 36/51/18
f 2/3/19 4/2/19 34/52/19
f 36/53/10 37/48/10 41/54/10
f 38/26/20 42/55/20 43/56/20
f 40/57/20 41/54/20 45/58/20
f 36/51/21 40/59/21 23/60/21
f 34/52/22 4/2/22 6/61/22
f 40/62/23 25/63/23 27/38/23
f 25/35/24 40/64/24 23/33/24
f 6/14/25 38/65/25 8/16/25
f 38/66/26 42/67/26 10/68/26
f 17/69/27 4/70/27 37/48/27
f 1/71/28 3/1/28 2/3/28
f 1/5/29 13/4/29 3/72/29
f 1/5/30 18/73/30 20/6/30
f 13/8/31 4/7/31 3/13/31
f 13/8/3 20/74/3 21/9/3
f 1/75/32 2/10/32 18/12/32
f 5/15/33 3/13/33 6/14/33
f 7/17/6 5/15/6 8/16/6
f 9/76/7 7/17/7 10/18/7
f 11/19/8 7/19/8 12/19/8
f 14/77/34 15/20/34 16/22/34
f 30/24/35 14/23/35 16/78/35
f 14/23/36 20/6/36 18/73/36
f 35/79/10 34/25/10 39/27/10
f 17/29/37 30/28/37 16/31/37
f 30/28/3 21/9/3 20/74/3
f 14/80/38 18/12/38 15/30/38
f 17/29/39 16/31/39 23/33/39
f 23/33/12 22/32/12 25/35/12
f 25/63/13 24/36/13 27/38/13
f 26/19/8 24/19/8 29/19/8
f 3/81/14 5/39/14 16/41/14
f 28/45/15 22/40/15 11/42/15
f 11/42/16 12/43/16 28/45/16
f 32/19/8 15/19/8 33/19/8
f 36/53/17 32/46/17 37/48/17
f 35/79/17 19/11/17 34/25/17
f 40/57/10 36/53/10 41/54/10
f 39/27/20 38/26/20 43/56/20
f 44/82/20 40/57/20 45/58/20
f 17/49/40 36/51/40 23/60/40
f 38/83/41 34/52/41 6/61/41
f 44/84/42 40/62/42 27/38/42
f 8/85/43 38/66/43 10/68/43
f 4/70/27 34/86/27 37/48/27
f 37/48/27 36/53/27 17/69/27
